# xmcd
#
# Track frame offsets:
#	150
#	16256
#	33578
#	50749
#	61479
#	82131
#	99375
#	110136
#	130582
#	147909
#
# Disc length: 2146 seconds
#
# Revision: 1
# Processed by: cddbd v1.5.2PL0 Copyright (c) Steve Scherf et al.
# Submitted via: audiograbber 1.83.01
#
DISCID=8c08600a
DTITLE=Tina Dunnegan - Dangerous wa to love
DYEAR=1900
DGENRE=Country
TTITLE0=Dangerous way to love
TTITLE1=Here and gone
TTITLE2=It's about me
TTITLE3=Mine all mine
TTITLE4=Good indication
TTITLE5=Southbound lane
TTITLE6=Mr. Right
TTITLE7=It's happening to her
TTITLE8=Ticket to Dallas
TTITLE9=From the heart
EXTD=
EXTT0=
EXTT1=
EXTT2=
EXTT3=
EXTT4=
EXTT5=
EXTT6=
EXTT7=
EXTT8=
EXTT9=
PLAYORDER=
